<svg width="64" height="64" viewBox="0 0 64 64" fill="none" xmlns="http://www.w3.org/2000/svg"><path d="M49.558 29.614H14.442V55.951H49.558V29.614Z" stroke="currentColor" stroke-width="4" stroke-linejoin="bevel"/><path d="M35.871 39.674C35.874 38.9834 35.6922 38.3046 35.3445 37.708C34.9968 37.1113 34.4957 36.6186 33.8934 36.2808C33.2911 35.943 32.6093 35.7725 31.9189 35.787C31.2285 35.8015 30.5545 36.0004 29.9668 36.3631C29.3792 36.7258 28.8992 37.2392 28.5768 37.8499C28.2544 38.4606 28.1012 39.1464 28.1332 39.8362C28.1651 40.5261 28.381 41.1948 28.7585 41.7731C29.136 42.3514 29.6613 42.8182 30.28 43.125V49.4H33.72V43.125C34.3644 42.8073 34.9073 42.3159 35.2874 41.7061C35.6674 41.0963 35.8696 40.3925 35.871 39.674Z" fill="currentColor"/><path d="M21.208 29.614H42.792V18.822C42.792 17.4048 42.5129 16.0014 41.9705 14.6921C41.4282 13.3827 40.6332 12.193 39.6311 11.1909C38.629 10.1888 37.4393 9.39384 36.1299 8.85149C34.8206 8.30914 33.4172 8.03 32 8.03C30.5828 8.03 29.1794 8.30914 27.8701 8.85149C26.5607 9.39384 25.371 10.1888 24.3689 11.1909C23.3668 12.193 22.5718 13.3827 22.0295 14.6921C21.4872 16.0014 21.208 17.4048 21.208 18.822V29.614Z" stroke="currentColor" stroke-width="4" stroke-miterlimit="10"/></svg>
